<svg width="120" height="40" viewBox="0 0 120 40" fill="none" xmlns="http://www.w3.org/2000/svg">
<path d="M36.5449 0.46875V9H35.4082L31.1133 2.41992V9H29.9824V0.46875H31.1133L35.4258 7.06641V0.46875H36.5449ZM38.0977 5.90039V5.76562C38.0977 5.30859 38.1641 4.88477 38.2969 4.49414C38.4297 4.09961 38.6211 3.75781 38.8711 3.46875C39.1211 3.17578 39.4238 2.94922 39.7793 2.78906C40.1348 2.625 40.5332 2.54297 40.9746 2.54297C41.4199 2.54297 41.8203 2.625 42.1758 2.78906C42.5352 2.94922 42.8398 3.17578 43.0898 3.46875C43.3438 3.75781 43.5371 4.09961 43.6699 4.49414C43.8027 4.88477 43.8691 5.30859 43.8691 5.76562V5.90039C43.8691 6.35742 43.8027 6.78125 43.6699 7.17188C43.5371 7.5625 43.3438 7.9043 43.0898 8.19727C42.8398 8.48633 42.5371 8.71289 42.1816 8.87695C41.8301 9.03711 41.4316 9.11719 40.9863 9.11719C40.541 9.11719 40.1406 9.03711 39.7852 8.87695C39.4297 8.71289 39.125 8.48633 38.8711 8.19727C38.6211 7.9043 38.4297 7.5625 38.2969 7.17188C38.1641 6.78125 38.0977 6.35742 38.0977 5.90039ZM39.1816 5.76562V5.90039C39.1816 6.2168 39.2188 6.51562 39.293 6.79688C39.3672 7.07422 39.4785 7.32031 39.627 7.53516C39.7793 7.75 39.9688 7.91992 40.1953 8.04492C40.4219 8.16602 40.6855 8.22656 40.9863 8.22656C41.2832 8.22656 41.543 8.16602 41.7656 8.04492C41.9922 7.91992 42.1797 7.75 42.3281 7.53516C42.4766 7.32031 42.5879 7.07422 42.6621 6.79688C42.7402 6.51562 42.7793 6.2168 42.7793 5.90039V5.76562C42.7793 5.45312 42.7402 5.1582 42.6621 4.88086C42.5879 4.59961 42.4746 4.35156 42.3223 4.13672C42.1738 3.91797 41.9863 3.74609 41.7598 3.62109C41.5371 3.49609 41.2754 3.43359 40.9746 3.43359C40.6777 3.43359 40.416 3.49609 40.1895 3.62109C39.9668 3.74609 39.7793 3.91797 39.627 4.13672C39.4785 4.35156 39.3672 4.59961 39.293 4.88086C39.2188 5.1582 39.1816 5.45312 39.1816 5.76562ZM47.8828 2.66016V3.49219H44.4551V2.66016H47.8828ZM45.6152 1.11914H46.6992V7.42969C46.6992 7.64453 46.7324 7.80664 46.7988 7.91602C46.8652 8.02539 46.9512 8.09766 47.0566 8.13281C47.1621 8.16797 47.2754 8.18555 47.3965 8.18555C47.4863 8.18555 47.5801 8.17773 47.6777 8.16211C47.7793 8.14258 47.8555 8.12695 47.9062 8.11523L47.9121 9C47.8262 9.02734 47.7129 9.05273 47.5723 9.07617C47.4355 9.10352 47.2695 9.11719 47.0742 9.11719C46.8086 9.11719 46.5645 9.06445 46.3418 8.95898C46.1191 8.85352 45.9414 8.67773 45.8086 8.43164C45.6797 8.18164 45.6152 7.8457 45.6152 7.42383V1.11914ZM53.4258 0.46875V9H52.2949V0.46875H53.4258ZM57 4.30664V5.23242H53.1797V4.30664H57ZM57.5801 0.46875V1.39453H53.1797V0.46875H57.5801ZM58.3477 5.90039V5.76562C58.3477 5.30859 58.4141 4.88477 58.5469 4.49414C58.6797 4.09961 58.8711 3.75781 59.1211 3.46875C59.3711 3.17578 59.6738 2.94922 60.0293 2.78906C60.3848 2.625 60.7832 2.54297 61.2246 2.54297C61.6699 2.54297 62.0703 2.625 62.4258 2.78906C62.7852 2.94922 63.0898 3.17578 63.3398 3.46875C63.5938 3.75781 63.7871 4.09961 63.9199 4.49414C64.0527 4.88477 64.1191 5.30859 64.1191 5.76562V5.90039C64.1191 6.35742 64.0527 6.78125 63.9199 7.17188C63.7871 7.5625 63.5938 7.9043 63.3398 8.19727C63.0898 8.48633 62.7871 8.71289 62.4316 8.87695C62.0801 9.03711 61.6816 9.11719 61.2363 9.11719C60.791 9.11719 60.3906 9.03711 60.0352 8.87695C59.6797 8.71289 59.375 8.48633 59.1211 8.19727C58.8711 7.9043 58.6797 7.5625 58.5469 7.17188C58.4141 6.78125 58.3477 6.35742 58.3477 5.90039ZM59.4316 5.76562V5.90039C59.4316 6.2168 59.4688 6.51562 59.543 6.79688C59.6172 7.07422 59.7285 7.32031 59.877 7.53516C60.0293 7.75 60.2188 7.91992 60.4453 8.04492C60.6719 8.16602 60.9355 8.22656 61.2363 8.22656C61.5332 8.22656 61.793 8.16602 62.0156 8.04492C62.2422 7.91992 62.4297 7.75 62.5781 7.53516C62.7266 7.32031 62.8379 7.07422 62.9121 6.79688C62.9902 6.51562 63.0293 6.2168 63.0293 5.90039V5.76562C63.0293 5.45312 62.9902 5.1582 62.9121 4.88086C62.8379 4.59961 62.7246 4.35156 62.5723 4.13672C62.4238 3.91797 62.2363 3.74609 62.0098 3.62109C61.7871 3.49609 61.5254 3.43359 61.2246 3.43359C60.9277 3.43359 60.666 3.49609 60.4395 3.62109C60.2168 3.74609 60.0293 3.91797 59.877 4.13672C59.7285 4.35156 59.6172 4.59961 59.543 4.88086C59.4688 5.1582 59.4316 5.45312 59.4316 5.76562ZM69.3574 7.53516V2.66016H70.4473V9H69.4102L69.3574 7.53516ZM69.5625 6.19922L70.0137 6.1875C70.0137 6.60938 69.9688 7 69.8789 7.35938C69.793 7.71484 69.6523 8.02344 69.457 8.28516C69.2617 8.54688 69.0059 8.75195 68.6895 8.90039C68.373 9.04492 67.9883 9.11719 67.5352 9.11719C67.2266 9.11719 66.9434 9.07227 66.6855 8.98242C66.4316 8.89258 66.2129 8.75391 66.0293 8.56641C65.8457 8.37891 65.7031 8.13477 65.6016 7.83398C65.5039 7.5332 65.4551 7.17188 65.4551 6.75V2.66016H66.5391V6.76172C66.5391 7.04688 66.5703 7.2832 66.6328 7.4707C66.6992 7.6543 66.7871 7.80078 66.8965 7.91016C67.0098 8.01562 67.1348 8.08984 67.2715 8.13281C67.4121 8.17578 67.5566 8.19727 67.7051 8.19727C68.166 8.19727 68.5312 8.10938 68.8008 7.93359C69.0703 7.75391 69.2637 7.51367 69.3809 7.21289C69.502 6.9082 69.5625 6.57031 69.5625 6.19922ZM73.1836 4.01367V9H72.0996V2.66016H73.125L73.1836 4.01367ZM72.9258 5.58984L72.4746 5.57227C72.4785 5.13867 72.543 4.73828 72.668 4.37109C72.793 4 72.9688 3.67773 73.1953 3.4043C73.4219 3.13086 73.6914 2.91992 74.0039 2.77148C74.3203 2.61914 74.6699 2.54297 75.0527 2.54297C75.3652 2.54297 75.6465 2.58594 75.8965 2.67188C76.1465 2.75391 76.3594 2.88672 76.5352 3.07031C76.7148 3.25391 76.8516 3.49219 76.9453 3.78516C77.0391 4.07422 77.0859 4.42773 77.0859 4.8457V9H75.9961V4.83398C75.9961 4.50195 75.9473 4.23633 75.8496 4.03711C75.752 3.83398 75.6094 3.6875 75.4219 3.59766C75.2344 3.50391 75.0039 3.45703 74.7305 3.45703C74.4609 3.45703 74.2148 3.51367 73.9922 3.62695C73.7734 3.74023 73.584 3.89648 73.4238 4.0957C73.2676 4.29492 73.1445 4.52344 73.0547 4.78125C72.9688 5.03516 72.9258 5.30469 72.9258 5.58984ZM82.7285 7.76953V0H83.8184V9H82.8223L82.7285 7.76953ZM78.4629 5.90039V5.77734C78.4629 5.29297 78.5215 4.85352 78.6387 4.45898C78.7598 4.06055 78.9297 3.71875 79.1484 3.43359C79.3711 3.14844 79.6348 2.92969 79.9395 2.77734C80.248 2.62109 80.5918 2.54297 80.9707 2.54297C81.3691 2.54297 81.7168 2.61328 82.0137 2.75391C82.3145 2.89062 82.5684 3.0918 82.7754 3.35742C82.9863 3.61914 83.1523 3.93555 83.2734 4.30664C83.3945 4.67773 83.4785 5.09766 83.5254 5.56641V6.10547C83.4824 6.57031 83.3984 6.98828 83.2734 7.35938C83.1523 7.73047 82.9863 8.04688 82.7754 8.30859C82.5684 8.57031 82.3145 8.77148 82.0137 8.91211C81.7129 9.04883 81.3613 9.11719 80.959 9.11719C80.5879 9.11719 80.248 9.03711 79.9395 8.87695C79.6348 8.7168 79.3711 8.49219 79.1484 8.20312C78.9297 7.91406 78.7598 7.57422 78.6387 7.18359C78.5215 6.78906 78.4629 6.36133 78.4629 5.90039ZM79.5527 5.77734V5.90039C79.5527 6.2168 79.584 6.51367 79.6465 6.79102C79.7129 7.06836 79.8145 7.3125 79.9512 7.52344C80.0879 7.73438 80.2617 7.90039 80.4727 8.02148C80.6836 8.13867 80.9355 8.19727 81.2285 8.19727C81.5879 8.19727 81.8828 8.12109 82.1133 7.96875C82.3477 7.81641 82.5352 7.61523 82.6758 7.36523C82.8164 7.11523 82.9258 6.84375 83.0039 6.55078V5.13867C82.957 4.92383 82.8887 4.7168 82.7988 4.51758C82.7129 4.31445 82.5996 4.13477 82.459 3.97852C82.3223 3.81836 82.1523 3.69141 81.9492 3.59766C81.75 3.50391 81.5137 3.45703 81.2402 3.45703C80.9434 3.45703 80.6875 3.51953 80.4727 3.64453C80.2617 3.76562 80.0879 3.93359 79.9512 4.14844C79.8145 4.35938 79.7129 4.60547 79.6465 4.88672C79.584 5.16406 79.5527 5.46094 79.5527 5.77734ZM85.5234 8.42578C85.5234 8.24219 85.5801 8.08789 85.6934 7.96289C85.8105 7.83398 85.9785 7.76953 86.1973 7.76953C86.416 7.76953 86.582 7.83398 86.6953 7.96289C86.8125 8.08789 86.8711 8.24219 86.8711 8.42578C86.8711 8.60547 86.8125 8.75781 86.6953 8.88281C86.582 9.00781 86.416 9.07031 86.1973 9.07031C85.9785 9.07031 85.8105 9.00781 85.6934 8.88281C85.5801 8.75781 85.5234 8.60547 85.5234 8.42578ZM88.6875 8.42578C88.6875 8.24219 88.7441 8.08789 88.8574 7.96289C88.9746 7.83398 89.1426 7.76953 89.3613 7.76953C89.5801 7.76953 89.7461 7.83398 89.8594 7.96289C89.9766 8.08789 90.0352 8.24219 90.0352 8.42578C90.0352 8.60547 89.9766 8.75781 89.8594 8.88281C89.7461 9.00781 89.5801 9.07031 89.3613 9.07031C89.1426 9.07031 88.9746 9.00781 88.8574 8.88281C88.7441 8.75781 88.6875 8.60547 88.6875 8.42578ZM4.02539 33.6543H1.74609V32.7344H4.02539C4.4668 32.7344 4.82422 32.6641 5.09766 32.5234C5.37109 32.3828 5.57031 32.1875 5.69531 31.9375C5.82422 31.6875 5.88867 31.4023 5.88867 31.082C5.88867 30.7891 5.82422 30.5137 5.69531 30.2559C5.57031 29.998 5.37109 29.791 5.09766 29.6348C4.82422 29.4746 4.4668 29.3945 4.02539 29.3945H2.00977V37H0.878906V28.4688H4.02539C4.66992 28.4688 5.21484 28.5801 5.66016 28.8027C6.10547 29.0254 6.44336 29.334 6.67383 29.7285C6.9043 30.1191 7.01953 30.5664 7.01953 31.0703C7.01953 31.6172 6.9043 32.084 6.67383 32.4707C6.44336 32.8574 6.10547 33.1523 5.66016 33.3555C5.21484 33.5547 4.66992 33.6543 4.02539 33.6543ZM9.46289 28V37H8.37305V28H9.46289ZM13.834 37.1172C13.3926 37.1172 12.9922 37.043 12.6328 36.8945C12.2773 36.7422 11.9707 36.5293 11.7129 36.2559C11.459 35.9824 11.2637 35.6582 11.127 35.2832C10.9902 34.9082 10.9219 34.498 10.9219 34.0527V33.8066C10.9219 33.291 10.998 32.832 11.1504 32.4297C11.3027 32.0234 11.5098 31.6797 11.7715 31.3984C12.0332 31.1172 12.3301 30.9043 12.6621 30.7598C12.9941 30.6152 13.3379 30.543 13.6934 30.543C14.1465 30.543 14.5371 30.6211 14.8652 30.7773C15.1973 30.9336 15.4688 31.1523 15.6797 31.4336C15.8906 31.7109 16.0469 32.0391 16.1484 32.418C16.25 32.793 16.3008 33.2031 16.3008 33.6484V34.1348H11.5664V33.25H15.2168V33.168C15.2012 32.8867 15.1426 32.6133 15.041 32.3477C14.9434 32.082 14.7871 31.8633 14.5723 31.6914C14.3574 31.5195 14.0645 31.4336 13.6934 31.4336C13.4473 31.4336 13.2207 31.4863 13.0137 31.5918C12.8066 31.6934 12.6289 31.8457 12.4805 32.0488C12.332 32.252 12.2168 32.5 12.1348 32.793C12.0527 33.0859 12.0117 33.4238 12.0117 33.8066V34.0527C12.0117 34.3535 12.0527 34.6367 12.1348 34.9023C12.2207 35.1641 12.3438 35.3945 12.5039 35.5938C12.668 35.793 12.8652 35.9492 13.0957 36.0625C13.3301 36.1758 13.5957 36.2324 13.8926 36.2324C14.2754 36.2324 14.5996 36.1543 14.8652 35.998C15.1309 35.8418 15.3633 35.6328 15.5625 35.3711L16.2188 35.8926C16.082 36.0996 15.9082 36.2969 15.6973 36.4844C15.4863 36.6719 15.2266 36.8242 14.918 36.9414C14.6133 37.0586 14.252 37.1172 13.834 37.1172ZM21.3047 35.916V32.6523C21.3047 32.4023 21.2539 32.1855 21.1523 32.002C21.0547 31.8145 20.9062 31.6699 20.707 31.5684C20.5078 31.4668 20.2617 31.416 19.9688 31.416C19.6953 31.416 19.4551 31.4629 19.248 31.5566C19.0449 31.6504 18.8848 31.7734 18.7676 31.9258C18.6543 32.0781 18.5977 32.2422 18.5977 32.418H17.5137C17.5137 32.1914 17.5723 31.9668 17.6895 31.7441C17.8066 31.5215 17.9746 31.3203 18.1934 31.1406C18.416 30.957 18.6816 30.8125 18.9902 30.707C19.3027 30.5977 19.6504 30.543 20.0332 30.543C20.4941 30.543 20.9004 30.6211 21.252 30.7773C21.6074 30.9336 21.8848 31.1699 22.084 31.4863C22.2871 31.7988 22.3887 32.1914 22.3887 32.6641V35.6172C22.3887 35.8281 22.4062 36.0527 22.4414 36.291C22.4805 36.5293 22.5371 36.7344 22.6113 36.9062V37H21.4805C21.4258 36.875 21.3828 36.709 21.3516 36.502C21.3203 36.291 21.3047 36.0957 21.3047 35.916ZM21.4922 33.1562L21.5039 33.918H20.4082C20.0996 33.918 19.8242 33.9434 19.582 33.9941C19.3398 34.041 19.1367 34.1133 18.9727 34.2109C18.8086 34.3086 18.6836 34.4316 18.5977 34.5801C18.5117 34.7246 18.4688 34.8945 18.4688 35.0898C18.4688 35.2891 18.5137 35.4707 18.6035 35.6348C18.6934 35.7988 18.8281 35.9297 19.0078 36.0273C19.1914 36.1211 19.416 36.168 19.6816 36.168C20.0137 36.168 20.3066 36.0977 20.5605 35.957C20.8145 35.8164 21.0156 35.6445 21.1641 35.4414C21.3164 35.2383 21.3984 35.041 21.4102 34.8496L21.873 35.3711C21.8457 35.5352 21.7715 35.7168 21.6504 35.916C21.5293 36.1152 21.3672 36.3066 21.1641 36.4902C20.9648 36.6699 20.7266 36.8203 20.4492 36.9414C20.1758 37.0586 19.8672 37.1172 19.5234 37.1172C19.0938 37.1172 18.7168 37.0332 18.3926 36.8652C18.0723 36.6973 17.8223 36.4727 17.6426 36.1914C17.4668 35.9062 17.3789 35.5879 17.3789 35.2363C17.3789 34.8965 17.4453 34.5977 17.5781 34.3398C17.7109 34.0781 17.9023 33.8613 18.1523 33.6895C18.4023 33.5137 18.7031 33.3809 19.0547 33.291C19.4062 33.2012 19.7988 33.1562 20.2324 33.1562H21.4922ZM27.7852 35.3184C27.7852 35.1621 27.75 35.0176 27.6797 34.8848C27.6133 34.748 27.4746 34.625 27.2637 34.5156C27.0566 34.4023 26.7441 34.3047 26.3262 34.2227C25.9746 34.1484 25.6562 34.0605 25.3711 33.959C25.0898 33.8574 24.8496 33.7344 24.6504 33.5898C24.4551 33.4453 24.3047 33.2754 24.1992 33.0801C24.0938 32.8848 24.041 32.6562 24.041 32.3945C24.041 32.1445 24.0957 31.9082 24.2051 31.6855C24.3184 31.4629 24.4766 31.2656 24.6797 31.0938C24.8867 30.9219 25.1348 30.7871 25.4238 30.6895C25.7129 30.5918 26.0352 30.543 26.3906 30.543C26.8984 30.543 27.332 30.6328 27.6914 30.8125C28.0508 30.9922 28.3262 31.2324 28.5176 31.5332C28.709 31.8301 28.8047 32.1602 28.8047 32.5234H27.7207C27.7207 32.3477 27.668 32.1777 27.5625 32.0137C27.4609 31.8457 27.3105 31.707 27.1113 31.5977C26.916 31.4883 26.6758 31.4336 26.3906 31.4336C26.0898 31.4336 25.8457 31.4805 25.6582 31.5742C25.4746 31.6641 25.3398 31.7793 25.2539 31.9199C25.1719 32.0605 25.1309 32.209 25.1309 32.3652C25.1309 32.4824 25.1504 32.5879 25.1895 32.6816C25.2324 32.7715 25.3066 32.8555 25.4121 32.9336C25.5176 33.0078 25.666 33.0781 25.8574 33.1445C26.0488 33.2109 26.293 33.2773 26.5898 33.3438C27.1094 33.4609 27.5371 33.6016 27.873 33.7656C28.209 33.9297 28.459 34.1309 28.623 34.3691C28.7871 34.6074 28.8691 34.8965 28.8691 35.2363C28.8691 35.5137 28.8105 35.7676 28.6934 35.998C28.5801 36.2285 28.4141 36.4277 28.1953 36.5957C27.9805 36.7598 27.7227 36.8887 27.4219 36.9824C27.125 37.0723 26.791 37.1172 26.4199 37.1172C25.8613 37.1172 25.3887 37.0176 25.002 36.8184C24.6152 36.6191 24.3223 36.3613 24.123 36.0449C23.9238 35.7285 23.8242 35.3945 23.8242 35.043H24.9141C24.9297 35.3398 25.0156 35.5762 25.1719 35.752C25.3281 35.9238 25.5195 36.0469 25.7461 36.1211C25.9727 36.1914 26.1973 36.2266 26.4199 36.2266C26.7168 36.2266 26.9648 36.1875 27.1641 36.1094C27.3672 36.0312 27.5215 35.9238 27.627 35.7871C27.7324 35.6504 27.7852 35.4941 27.7852 35.3184ZM32.9238 37.1172C32.4824 37.1172 32.082 37.043 31.7227 36.8945C31.3672 36.7422 31.0605 36.5293 30.8027 36.2559C30.5488 35.9824 30.3535 35.6582 30.2168 35.2832C30.0801 34.9082 30.0117 34.498 30.0117 34.0527V33.8066C30.0117 33.291 30.0879 32.832 30.2402 32.4297C30.3926 32.0234 30.5996 31.6797 30.8613 31.3984C31.123 31.1172 31.4199 30.9043 31.752 30.7598C32.084 30.6152 32.4277 30.543 32.7832 30.543C33.2363 30.543 33.627 30.6211 33.9551 30.7773C34.2871 30.9336 34.5586 31.1523 34.7695 31.4336C34.9805 31.7109 35.1367 32.0391 35.2383 32.418C35.3398 32.793 35.3906 33.2031 35.3906 33.6484V34.1348H30.6562V33.25H34.3066V33.168C34.291 32.8867 34.2324 32.6133 34.1309 32.3477C34.0332 32.082 33.877 31.8633 33.6621 31.6914C33.4473 31.5195 33.1543 31.4336 32.7832 31.4336C32.5371 31.4336 32.3105 31.4863 32.1035 31.5918C31.8965 31.6934 31.7188 31.8457 31.5703 32.0488C31.4219 32.252 31.3066 32.5 31.2246 32.793C31.1426 33.0859 31.1016 33.4238 31.1016 33.8066V34.0527C31.1016 34.3535 31.1426 34.6367 31.2246 34.9023C31.3105 35.1641 31.4336 35.3945 31.5938 35.5938C31.7578 35.793 31.9551 35.9492 32.1855 36.0625C32.4199 36.1758 32.6855 36.2324 32.9824 36.2324C33.3652 36.2324 33.6895 36.1543 33.9551 35.998C34.2207 35.8418 34.4531 35.6328 34.6523 35.3711L35.3086 35.8926C35.1719 36.0996 34.998 36.2969 34.7871 36.4844C34.5762 36.6719 34.3164 36.8242 34.0078 36.9414C33.7031 37.0586 33.3418 37.1172 32.9238 37.1172ZM42.1699 36.2266C42.4277 36.2266 42.666 36.1738 42.8848 36.0684C43.1035 35.9629 43.2832 35.8184 43.4238 35.6348C43.5645 35.4473 43.6445 35.2344 43.6641 34.9961H44.6953C44.6758 35.3711 44.5488 35.7207 44.3145 36.0449C44.084 36.3652 43.7812 36.625 43.4062 36.8242C43.0312 37.0195 42.6191 37.1172 42.1699 37.1172C41.6934 37.1172 41.2773 37.0332 40.9219 36.8652C40.5703 36.6973 40.2773 36.4668 40.043 36.1738C39.8125 35.8809 39.6387 35.5449 39.5215 35.166C39.4082 34.7832 39.3516 34.3789 39.3516 33.9531V33.707C39.3516 33.2812 39.4082 32.8789 39.5215 32.5C39.6387 32.1172 39.8125 31.7793 40.043 31.4863C40.2773 31.1934 40.5703 30.9629 40.9219 30.7949C41.2773 30.627 41.6934 30.543 42.1699 30.543C42.666 30.543 43.0996 30.6445 43.4707 30.8477C43.8418 31.0469 44.1328 31.3203 44.3438 31.668C44.5586 32.0117 44.6758 32.4023 44.6953 32.8398H43.6641C43.6445 32.5781 43.5703 32.3418 43.4414 32.1309C43.3164 31.9199 43.1445 31.752 42.9258 31.627C42.7109 31.498 42.459 31.4336 42.1699 31.4336C41.8379 31.4336 41.5586 31.5 41.332 31.6328C41.1094 31.7617 40.9316 31.9375 40.7988 32.1602C40.6699 32.3789 40.5762 32.623 40.5176 32.8926C40.4629 33.1582 40.4355 33.4297 40.4355 33.707V33.9531C40.4355 34.2305 40.4629 34.5039 40.5176 34.7734C40.5723 35.043 40.6641 35.2871 40.793 35.5059C40.9258 35.7246 41.1035 35.9004 41.3262 36.0332C41.5527 36.1621 41.834 36.2266 42.1699 36.2266ZM46.998 28V37H45.9141V28H46.998ZM46.7402 33.5898L46.2891 33.5723C46.293 33.1387 46.3574 32.7383 46.4824 32.3711C46.6074 32 46.7832 31.6777 47.0098 31.4043C47.2363 31.1309 47.5059 30.9199 47.8184 30.7715C48.1348 30.6191 48.4844 30.543 48.8672 30.543C49.1797 30.543 49.4609 30.5859 49.7109 30.6719C49.9609 30.7539 50.1738 30.8867 50.3496 31.0703C50.5293 31.2539 50.666 31.4922 50.7598 31.7852C50.8535 32.0742 50.9004 32.4277 50.9004 32.8457V37H49.8105V32.834C49.8105 32.502 49.7617 32.2363 49.6641 32.0371C49.5664 31.834 49.4238 31.6875 49.2363 31.5977C49.0488 31.5039 48.8184 31.457 48.5449 31.457C48.2754 31.457 48.0293 31.5137 47.8066 31.627C47.5879 31.7402 47.3984 31.8965 47.2383 32.0957C47.082 32.2949 46.959 32.5234 46.8691 32.7812C46.7832 33.0352 46.7402 33.3047 46.7402 33.5898ZM55.1543 37.1172C54.7129 37.1172 54.3125 37.043 53.9531 36.8945C53.5977 36.7422 53.291 36.5293 53.0332 36.2559C52.7793 35.9824 52.584 35.6582 52.4473 35.2832C52.3105 34.9082 52.2422 34.498 52.2422 34.0527V33.8066C52.2422 33.291 52.3184 32.832 52.4707 32.4297C52.623 32.0234 52.8301 31.6797 53.0918 31.3984C53.3535 31.1172 53.6504 30.9043 53.9824 30.7598C54.3145 30.6152 54.6582 30.543 55.0137 30.543C55.4668 30.543 55.8574 30.6211 56.1855 30.7773C56.5176 30.9336 56.7891 31.1523 57 31.4336C57.2109 31.7109 57.3672 32.0391 57.4688 32.418C57.5703 32.793 57.6211 33.2031 57.6211 33.6484V34.1348H52.8867V33.25H56.5371V33.168C56.5215 32.8867 56.4629 32.6133 56.3613 32.3477C56.2637 32.082 56.1074 31.8633 55.8926 31.6914C55.6777 31.5195 55.3848 31.4336 55.0137 31.4336C54.7676 31.4336 54.541 31.4863 54.334 31.5918C54.127 31.6934 53.9492 31.8457 53.8008 32.0488C53.6523 32.252 53.5371 32.5 53.4551 32.793C53.373 33.0859 53.332 33.4238 53.332 33.8066V34.0527C53.332 34.3535 53.373 34.6367 53.4551 34.9023C53.541 35.1641 53.6641 35.3945 53.8242 35.5938C53.9883 35.793 54.1855 35.9492 54.416 36.0625C54.6504 36.1758 54.916 36.2324 55.2129 36.2324C55.5957 36.2324 55.9199 36.1543 56.1855 35.998C56.4512 35.8418 56.6836 35.6328 56.8828 35.3711L57.5391 35.8926C57.4023 36.0996 57.2285 36.2969 57.0176 36.4844C56.8066 36.6719 56.5469 36.8242 56.2383 36.9414C55.9336 37.0586 55.5723 37.1172 55.1543 37.1172ZM61.4238 36.2266C61.6816 36.2266 61.9199 36.1738 62.1387 36.0684C62.3574 35.9629 62.5371 35.8184 62.6777 35.6348C62.8184 35.4473 62.8984 35.2344 62.918 34.9961H63.9492C63.9297 35.3711 63.8027 35.7207 63.5684 36.0449C63.3379 36.3652 63.0352 36.625 62.6602 36.8242C62.2852 37.0195 61.873 37.1172 61.4238 37.1172C60.9473 37.1172 60.5312 37.0332 60.1758 36.8652C59.8242 36.6973 59.5312 36.4668 59.2969 36.1738C59.0664 35.8809 58.8926 35.5449 58.7754 35.166C58.6621 34.7832 58.6055 34.3789 58.6055 33.9531V33.707C58.6055 33.2812 58.6621 32.8789 58.7754 32.5C58.8926 32.1172 59.0664 31.7793 59.2969 31.4863C59.5312 31.1934 59.8242 30.9629 60.1758 30.7949C60.5312 30.627 60.9473 30.543 61.4238 30.543C61.9199 30.543 62.3535 30.6445 62.7246 30.8477C63.0957 31.0469 63.3867 31.3203 63.5977 31.668C63.8125 32.0117 63.9297 32.4023 63.9492 32.8398H62.918C62.8984 32.5781 62.8242 32.3418 62.6953 32.1309C62.5703 31.9199 62.3984 31.752 62.1797 31.627C61.9648 31.498 61.7129 31.4336 61.4238 31.4336C61.0918 31.4336 60.8125 31.5 60.5859 31.6328C60.3633 31.7617 60.1855 31.9375 60.0527 32.1602C59.9238 32.3789 59.8301 32.623 59.7715 32.8926C59.7168 33.1582 59.6895 33.4297 59.6895 33.707V33.9531C59.6895 34.2305 59.7168 34.5039 59.7715 34.7734C59.8262 35.043 59.918 35.2871 60.0469 35.5059C60.1797 35.7246 60.3574 35.9004 60.5801 36.0332C60.8066 36.1621 61.0879 36.2266 61.4238 36.2266ZM66.2578 28V37H65.168V28H66.2578ZM70.1309 30.6602L67.3652 33.6191L65.8184 35.2246L65.7305 34.0703L66.8379 32.7461L68.8066 30.6602H70.1309ZM69.1406 37L66.8789 33.9766L67.4414 33.0098L70.418 37H69.1406ZM76.8809 30.6602V31.4922H73.4531V30.6602H76.8809ZM74.6133 29.1191H75.6973V35.4297C75.6973 35.6445 75.7305 35.8066 75.7969 35.916C75.8633 36.0254 75.9492 36.0977 76.0547 36.1328C76.1602 36.168 76.2734 36.1855 76.3945 36.1855C76.4844 36.1855 76.5781 36.1777 76.6758 36.1621C76.7773 36.1426 76.8535 36.127 76.9043 36.1152L76.9102 37C76.8242 37.0273 76.7109 37.0527 76.5703 37.0762C76.4336 37.1035 76.2676 37.1172 76.0723 37.1172C75.8066 37.1172 75.5625 37.0645 75.3398 36.959C75.1172 36.8535 74.9395 36.6777 74.8066 36.4316C74.6777 36.1816 74.6133 35.8457 74.6133 35.4238V29.1191ZM79.2363 28V37H78.1523V28H79.2363ZM78.9785 33.5898L78.5273 33.5723C78.5312 33.1387 78.5957 32.7383 78.7207 32.3711C78.8457 32 79.0215 31.6777 79.248 31.4043C79.4746 31.1309 79.7441 30.9199 80.0566 30.7715C80.373 30.6191 80.7227 30.543 81.1055 30.543C81.418 30.543 81.6992 30.5859 81.9492 30.6719C82.1992 30.7539 82.4121 30.8867 82.5879 31.0703C82.7676 31.2539 82.9043 31.4922 82.998 31.7852C83.0918 32.0742 83.1387 32.4277 83.1387 32.8457V37H82.0488V32.834C82.0488 32.502 82 32.2363 81.9023 32.0371C81.8047 31.834 81.6621 31.6875 81.4746 31.5977C81.2871 31.5039 81.0566 31.457 80.7832 31.457C80.5137 31.457 80.2676 31.5137 80.0449 31.627C79.8262 31.7402 79.6367 31.8965 79.4766 32.0957C79.3203 32.2949 79.1973 32.5234 79.1074 32.7812C79.0215 33.0352 78.9785 33.3047 78.9785 33.5898ZM87.3926 37.1172C86.9512 37.1172 86.5508 37.043 86.1914 36.8945C85.8359 36.7422 85.5293 36.5293 85.2715 36.2559C85.0176 35.9824 84.8223 35.6582 84.6855 35.2832C84.5488 34.9082 84.4805 34.498 84.4805 34.0527V33.8066C84.4805 33.291 84.5566 32.832 84.709 32.4297C84.8613 32.0234 85.0684 31.6797 85.3301 31.3984C85.5918 31.1172 85.8887 30.9043 86.2207 30.7598C86.5527 30.6152 86.8965 30.543 87.252 30.543C87.7051 30.543 88.0957 30.6211 88.4238 30.7773C88.7559 30.9336 89.0273 31.1523 89.2383 31.4336C89.4492 31.7109 89.6055 32.0391 89.707 32.418C89.8086 32.793 89.8594 33.2031 89.8594 33.6484V34.1348H85.125V33.25H88.7754V33.168C88.7598 32.8867 88.7012 32.6133 88.5996 32.3477C88.502 32.082 88.3457 31.8633 88.1309 31.6914C87.916 31.5195 87.623 31.4336 87.252 31.4336C87.0059 31.4336 86.7793 31.4863 86.5723 31.5918C86.3652 31.6934 86.1875 31.8457 86.0391 32.0488C85.8906 32.252 85.7754 32.5 85.6934 32.793C85.6113 33.0859 85.5703 33.4238 85.5703 33.8066V34.0527C85.5703 34.3535 85.6113 34.6367 85.6934 34.9023C85.7793 35.1641 85.9023 35.3945 86.0625 35.5938C86.2266 35.793 86.4238 35.9492 86.6543 36.0625C86.8887 36.1758 87.1543 36.2324 87.4512 36.2324C87.834 36.2324 88.1582 36.1543 88.4238 35.998C88.6895 35.8418 88.9219 35.6328 89.1211 35.3711L89.7773 35.8926C89.6406 36.0996 89.4668 36.2969 89.2559 36.4844C89.0449 36.6719 88.7852 36.8242 88.4766 36.9414C88.1719 37.0586 87.8105 37.1172 87.3926 37.1172ZM95.2793 30.6602V37H94.1895V30.6602H95.2793ZM94.1074 28.9785C94.1074 28.8027 94.1602 28.6543 94.2656 28.5332C94.375 28.4121 94.5352 28.3516 94.7461 28.3516C94.9531 28.3516 95.1113 28.4121 95.2207 28.5332C95.334 28.6543 95.3906 28.8027 95.3906 28.9785C95.3906 29.1465 95.334 29.291 95.2207 29.4121C95.1113 29.5293 94.9531 29.5879 94.7461 29.5879C94.5352 29.5879 94.375 29.5293 94.2656 29.4121C94.1602 29.291 94.1074 29.1465 94.1074 28.9785ZM98.1035 32.0137V37H97.0195V30.6602H98.0449L98.1035 32.0137ZM97.8457 33.5898L97.3945 33.5723C97.3984 33.1387 97.4629 32.7383 97.5879 32.3711C97.7129 32 97.8887 31.6777 98.1152 31.4043C98.3418 31.1309 98.6113 30.9199 98.9238 30.7715C99.2402 30.6191 99.5898 30.543 99.9727 30.543C100.285 30.543 100.566 30.5859 100.816 30.6719C101.066 30.7539 101.279 30.8867 101.455 31.0703C101.635 31.2539 101.771 31.4922 101.865 31.7852C101.959 32.0742 102.006 32.4277 102.006 32.8457V37H100.916V32.834C100.916 32.502 100.867 32.2363 100.77 32.0371C100.672 31.834 100.529 31.6875 100.342 31.5977C100.154 31.5039 99.9238 31.457 99.6504 31.457C99.3809 31.457 99.1348 31.5137 98.9121 31.627C98.6934 31.7402 98.5039 31.8965 98.3438 32.0957C98.1875 32.2949 98.0645 32.5234 97.9746 32.7812C97.8887 33.0352 97.8457 33.3047 97.8457 33.5898ZM104.736 31.8789V39.4375H103.646V30.6602H104.643L104.736 31.8789ZM109.008 33.7773V33.9004C109.008 34.3613 108.953 34.7891 108.844 35.1836C108.734 35.5742 108.574 35.9141 108.363 36.2031C108.156 36.4922 107.9 36.7168 107.596 36.877C107.291 37.0371 106.941 37.1172 106.547 37.1172C106.145 37.1172 105.789 37.0508 105.48 36.918C105.172 36.7852 104.91 36.5918 104.695 36.3379C104.48 36.084 104.309 35.7793 104.18 35.4238C104.055 35.0684 103.969 34.668 103.922 34.2227V33.5664C103.969 33.0977 104.057 32.6777 104.186 32.3066C104.314 31.9355 104.484 31.6191 104.695 31.3574C104.91 31.0918 105.17 30.8906 105.475 30.7539C105.779 30.6133 106.131 30.543 106.529 30.543C106.928 30.543 107.281 30.6211 107.59 30.7773C107.898 30.9297 108.158 31.1484 108.369 31.4336C108.58 31.7188 108.738 32.0605 108.844 32.459C108.953 32.8535 109.008 33.293 109.008 33.7773ZM107.918 33.9004V33.7773C107.918 33.4609 107.885 33.1641 107.818 32.8867C107.752 32.6055 107.648 32.3594 107.508 32.1484C107.371 31.9336 107.195 31.7656 106.98 31.6445C106.766 31.5195 106.51 31.457 106.213 31.457C105.939 31.457 105.701 31.5039 105.498 31.5977C105.299 31.6914 105.129 31.8184 104.988 31.9785C104.848 32.1348 104.732 32.3145 104.643 32.5176C104.557 32.7168 104.492 32.9238 104.449 33.1387V34.6562C104.527 34.9297 104.637 35.1875 104.777 35.4297C104.918 35.668 105.105 35.8613 105.34 36.0098C105.574 36.1543 105.869 36.2266 106.225 36.2266C106.518 36.2266 106.77 36.166 106.98 36.0449C107.195 35.9199 107.371 35.75 107.508 35.5352C107.648 35.3203 107.752 35.0742 107.818 34.7969C107.885 34.5156 107.918 34.2168 107.918 33.9004ZM114.27 35.5352V30.6602H115.359V37H114.322L114.27 35.5352ZM114.475 34.1992L114.926 34.1875C114.926 34.6094 114.881 35 114.791 35.3594C114.705 35.7148 114.564 36.0234 114.369 36.2852C114.174 36.5469 113.918 36.752 113.602 36.9004C113.285 37.0449 112.9 37.1172 112.447 37.1172C112.139 37.1172 111.855 37.0723 111.598 36.9824C111.344 36.8926 111.125 36.7539 110.941 36.5664C110.758 36.3789 110.615 36.1348 110.514 35.834C110.416 35.5332 110.367 35.1719 110.367 34.75V30.6602H111.451V34.7617C111.451 35.0469 111.482 35.2832 111.545 35.4707C111.611 35.6543 111.699 35.8008 111.809 35.9102C111.922 36.0156 112.047 36.0898 112.184 36.1328C112.324 36.1758 112.469 36.1973 112.617 36.1973C113.078 36.1973 113.443 36.1094 113.713 35.9336C113.982 35.7539 114.176 35.5137 114.293 35.2129C114.414 34.9082 114.475 34.5703 114.475 34.1992ZM119.666 30.6602V31.4922H116.238V30.6602H119.666ZM117.398 29.1191H118.482V35.4297C118.482 35.6445 118.516 35.8066 118.582 35.916C118.648 36.0254 118.734 36.0977 118.84 36.1328C118.945 36.168 119.059 36.1855 119.18 36.1855C119.27 36.1855 119.363 36.1777 119.461 36.1621C119.562 36.1426 119.639 36.127 119.689 36.1152L119.695 37C119.609 37.0273 119.496 37.0527 119.355 37.0762C119.219 37.1035 119.053 37.1172 118.857 37.1172C118.592 37.1172 118.348 37.0645 118.125 36.959C117.902 36.8535 117.725 36.6777 117.592 36.4316C117.463 36.1816 117.398 35.8457 117.398 35.4238V29.1191Z" fill="#BDBDBD"/>
</svg>
